<?xml version="1.0" encoding="utf-8"?>
<!-- Generator: Adobe Illustrator 21.1.0, SVG Export Plug-In . SVG Version: 6.00 Build 0)  -->
<svg version="1.1" id="Letter" xmlns="http://www.w3.org/2000/svg" xmlns:xlink="http://www.w3.org/1999/xlink" x="0px" y="0px"
	 viewBox="0 0 32 32" style="enable-background:new 0 0 32 32;" xml:space="preserve">
<style type="text/css">
	.st0{fill:#FFFFFF;}
</style>
<path class="st0" d="M16,0C7.2,0,0,7.2,0,16s7.2,16,16,16c8.8,0,16-7.2,16-16S24.8,0,16,0z M11.8,22.2c0,0.3-0.1,0.4-0.4,0.4
	c-0.9,0-1.8,0-2.7,0c-0.3,0-0.3-0.1-0.3-0.3c0-1.6,0-3.1,0-4.7c0-1.6,0-3.1,0-4.7c0-0.3,0.1-0.4,0.4-0.4c0.9,0,1.8,0,2.6,0
	c0.3,0,0.4,0.1,0.4,0.4C11.8,15.9,11.8,19.1,11.8,22.2z M10.1,11.2c-1.1,0-1.9-0.8-1.9-1.8c0-1,0.8-1.8,1.9-1.8
	c1.1,0,1.9,0.8,1.9,1.8C12,10.4,11.2,11.2,10.1,11.2z M23.4,22.6c-0.9,0-1.8,0-2.7,0c-0.3,0-0.4-0.1-0.4-0.4c0-1.7,0-3.4,0-5
	c0-0.3,0-0.7-0.1-1c-0.3-1.3-1.9-1.4-2.6-0.7c-0.5,0.4-0.7,1-0.7,1.6c0,1.7,0,3.5,0,5.2c0,0.1,0,0.3,0,0.4c-1.1,0-2.3,0-3.4,0
	c0-0.2,0-0.2,0-0.3c0-3.1,0-6.3,0-9.4c0-0.3,0.1-0.4,0.4-0.4c0.9,0,1.8,0,2.7,0c0.2,0,0.3,0.1,0.3,0.3c0,0.3,0,0.6,0,1
	c0.5-0.7,1.1-1.2,1.9-1.4c2.2-0.5,4.3,0.4,4.8,3.1c0.1,0.5,0.1,1.1,0.1,1.6c0,1.7,0,3.4,0,5.1C23.8,22.5,23.7,22.6,23.4,22.6z"/>
</svg>
