<?xml version="1.0" encoding="utf-8"?>
<!-- Generator: Adobe Illustrator 21.1.0, SVG Export Plug-In . SVG Version: 6.00 Build 0)  -->
<svg version="1.1" id="Logo" xmlns="http://www.w3.org/2000/svg" xmlns:xlink="http://www.w3.org/1999/xlink" x="0px" y="0px"
	 viewBox="0 0 32 32" style="enable-background:new 0 0 32 32;" xml:space="preserve">
<style type="text/css">
	.st0{fill:#FFFFFF;}
</style>
<g>
	<path class="st0" d="M12.8,17c-0.3-0.1-0.7-0.2-1.2-0.2H8.9v3.3h2.6c0.5,0,1-0.1,1.3-0.2c0.5-0.3,0.8-0.8,0.8-1.6
		C13.6,17.6,13.3,17.2,12.8,17z"/>
	<path class="st0" d="M21.6,14.6c-0.6,0-1.1,0.2-1.4,0.5c-0.3,0.3-0.5,0.8-0.6,1.4h4v0c0-0.6-0.3-1.1-0.6-1.4
		C22.6,14.8,22.1,14.6,21.6,14.6z"/>
	<path class="st0" d="M16,0C7.2,0,0,7.2,0,16s7.2,16,16,16s16-7.2,16-16S24.8,0,16,0z M19.1,10.3h5v1.2h0h-5V10.3z M15.6,20.5
		c-0.2,0.4-0.5,0.7-0.9,1c-0.4,0.3-0.9,0.5-1.4,0.6c-0.5,0.1-1.1,0.2-1.8,0.2H6V9.8h6c1.5,0,2.6,0.5,3.2,1.3
		c0.4,0.5,0.6,1.2,0.6,1.9c0,0.8-0.2,1.4-0.6,1.8c-0.2,0.3-0.5,0.5-0.9,0.7c0.6,0.2,1.1,0.6,1.4,1.1c0.3,0.5,0.5,1.1,0.5,1.8
		C16.2,19.2,16,19.9,15.6,20.5z M26,18h-6.5c0,0.9,0.3,1.5,0.9,1.9c0.4,0.2,0.8,0.3,1.3,0.3c0.5,0,1-0.1,1.3-0.4
		c0.2-0.1,0.3-0.4,0.5-0.6h2.4c-0.1,0.5-0.3,1.1-0.9,1.6c-0.8,0.9-1.9,1.3-3.4,1.3c-1.2,0-2.2-0.4-3.1-1.1c-0.9-0.7-1.4-1.9-1.4-3.6
		c0-1.5,0.4-2.7,1.2-3.6c0.8-0.8,1.9-1.2,3.2-1.2c0.8,0,1.5,0.1,2.1,0.4c0.6,0.3,1.1,0.7,1.5,1.3c0.4,0.5,0.6,1.1,0.7,1.8
		C26,16.7,26,17.3,26,18z"/>
	<path class="st0" d="M12.8,14.4c0.3-0.2,0.5-0.6,0.5-1.1c0-0.6-0.2-1-0.7-1.1c-0.4-0.1-0.9-0.2-1.5-0.2H8.9v2.7h2.6
		C12,14.7,12.5,14.6,12.8,14.4z"/>
</g>
</svg>
