<?xml version="1.0" encoding="utf-8"?>
<!-- Generator: Adobe Illustrator 24.2.3, SVG Export Plug-In . SVG Version: 6.00 Build 0)  -->
<svg version="1.1" id="envelope" xmlns="http://www.w3.org/2000/svg" xmlns:xlink="http://www.w3.org/1999/xlink" x="0px" y="0px"
	 viewBox="0 0 32 32" style="enable-background:new 0 0 32 32;" xml:space="preserve">
<style type="text/css">
	.st0{fill:#FFFFFF;}
</style>
<path class="st0" d="M15.690918,15.3544922c0.1816406,0.1416016,0.4360352,0.1425781,0.6166992,0.0004883l13.789856-10.7580566
	C29.4903564,4.2254028,28.7836914,4,28.0198364,4H3.9801636C3.2161865,4,2.5093994,4.2254028,1.9022217,4.5970459
	L15.690918,15.3544922z"/>
<path class="st0" d="M18.1542969,17.7197266C17.5205078,18.2148438,16.7607422,18.4628906,16,18.4628906
	c-0.7602539,0-1.5205078-0.2480469-2.1552734-0.7431641L0.1182861,7.0105591C0.0368042,7.3287354-0.0198364,7.6564331-0.0198364,8
	v16c0,2.2091675,1.7908936,4,4,4h24.0396729c2.2091064,0,4-1.7908325,4-4V8c0-0.343689-0.0567017-0.6715698-0.1382446-0.9898071
	L18.1542969,17.7197266z"/>
</svg>
