<?xml version="1.0" encoding="utf-8"?>
<!-- Generator: Adobe Illustrator 24.2.3, SVG Export Plug-In . SVG Version: 6.00 Build 0)  -->
<svg version="1.1" id="Layer_1" xmlns="http://www.w3.org/2000/svg" xmlns:xlink="http://www.w3.org/1999/xlink" x="0px" y="0px"
	 viewBox="0 0 44 44" style="enable-background:new 0 0 44 44;" xml:space="preserve">
<style type="text/css">
	.st0{fill:#FFFFFF;}
</style>
<path class="st0" d="M40.4812202,0.0000339H3.759937c-2.006515,0-3.7596371,1.4437478-3.7596371,3.4266911v36.8027992
	c0,1.9937515,1.7531221,3.770443,3.7596371,3.770443H40.470417c2.0173187,0,3.5298157-1.7884789,3.5298157-3.770443V3.4267249
	C44.0120163,1.4437817,42.4877357,0.0000339,40.4812202,0.0000339z M13.6392965,36.676136H7.3359141V17.0775089h6.3033824V36.676136
	z M10.7056408,14.0976896h-0.0451794c-2.0173187,0-3.323566-1.5016928-3.323566-3.3815126
	c0-1.9141932,1.3406234-3.3805308,3.4031205-3.3805308s3.3245497,1.4555335,3.3697271,3.3805308
	C14.1087599,12.5959969,12.8025131,14.0976896,10.7056408,14.0976896z M36.676403,36.676136h-6.3033829V25.9599953
	c0-2.5673199-0.9173183-4.3214226-3.1978512-4.3214226c-1.7423172,0-2.7735653,1.1785698-3.2322273,2.3266926
	c-0.171875,0.4125004-0.2180347,0.9742851-0.2180347,1.5478554V36.676136H17.421524V17.0775089h6.3033829v2.7274055
	c0.9173183-1.3062477,2.3502617-3.1860657,5.6846333-3.1860657c4.1377621,0,7.2678471,2.7274055,7.2678471,8.6074867
	L36.676403,36.676136z"/>
</svg>
