<?xml version="1.0" encoding="utf-8"?>
<!-- Generator: Adobe Illustrator 25.0.0, SVG Export Plug-In . SVG Version: 6.00 Build 0)  -->
<svg version="1.1" xmlns="http://www.w3.org/2000/svg" xmlns:xlink="http://www.w3.org/1999/xlink" x="0px" y="0px"
	 viewBox="0 0 24 24" style="enable-background:new 0 0 24 24;" xml:space="preserve">
<style type="text/css">
	.st0{fill:none;stroke:#FFB179;stroke-width:3;stroke-miterlimit:10;}
	.st1{display:none;}
	.st2{display:inline;fill:#FFFFFF;}
</style>
<g id="Logo">
	<path class="st0" d="M13.9618683,3.221097C9.5977449-1.876464,2.0719194,5.6662779,9.5794134,8.8434563
		c2.3563166,1.1602373,3.3624353,1.1123524,5.0980358,3.0460806C18.2104778,16.5681877,15.5974178,22.5,10.4043722,22.5
		c-10.940505,0-8.0706968-15.9499569,9.6295004-11.7349243"/>
</g>
<g id="Favicon" class="st1">
	<path class="st2" d="M10.6309614,18.9977856c-2.0216398,0-3.579946-0.8349705-4.2753739-2.2913265
		c-0.6484399-1.3572521-0.3944178-3.0135221,0.6629634-4.3229313c0.5795236-0.7170715,1.3432989-1.2786541,2.2517405-1.6759195
		C7.5630465,9.7891979,7.3987298,8.490325,7.4155316,7.9429812c0.0370212-1.201479,0.9095817-2.3069878,2.1708636-2.7512417
		c1.3595314-0.4778576,2.7743092-0.0606575,3.7838478,1.1183238l-1.3293447,1.1379738
		c-0.7239056-0.846076-1.4834089-0.7421322-1.8735552-0.6060081c-0.5667086,0.1996293-0.9884653,0.685461-1.0029888,1.1547756
		c-0.015378,0.4983621,0.4678907,0.9924521,1.3262119,1.3555436c0.4083719,0.1996298,0.7136536,0.3260708,0.9853325,0.4391279
		c0.1959276,0.0814466,0.3847351,0.1603308,0.5718346,0.2480421c1.3384571-0.1122026,2.8261385,0.0130997,4.4021015,0.3884373
		l-0.4055252,1.7018347c-0.6749239-0.160615-1.3282051-0.2705393-1.951869-0.3311977
		c0.9745102,1.533246,1.1254435,3.3575354,0.3770456,4.8605947C13.7404547,18.1235161,12.3054571,18.9977856,10.6309614,18.9977856z
		 M11.690052,11.8299189c-1.4409781,0.2036161-2.591197,0.7626352-3.3102617,1.6534214
		c-0.6299291,0.7797232-0.8005114,1.7257557-0.4453931,2.4690266c0.3932786,0.8235788,1.3760486,1.2957411,2.6965642,1.2957411
		c1.0109625,0,1.839098-0.4989319,2.2722454-1.3686438c0.5106068-1.0257711,0.3351841-2.3209419-0.4564991-3.3882904
		C12.1630688,12.1782026,11.932683,11.982275,11.690052,11.8299189z"/>
</g>
</svg>
