<svg id="Logo_v2" xmlns="http://www.w3.org/2000/svg" viewBox="0 0 450 450"><defs><style>.cls-1{fill:#ffb179;}</style></defs><title>logo</title><g id="Logo"><path class="cls-1" d="M440.09,176a579.52,579.52,0,0,0-103,9.38c-30.89,5.66-62.87,12.46-94.3,25.8,2.07,3.44,4.13,7.13,6.18,11.11,10.72,20.75,26.91,52.11,18.2,90.25-2.64,11.56-14.32,50.64-53.77,67.94A101.21,101.21,0,0,1,173.52,389c-17.75,0-35.37-5.24-48.49-18.27-20.67-19.72-26.38-50.79-15.66-85.28,7.12-22.89,24.24-44.4,53.88-67.7a286.72,286.72,0,0,1,26.15-18.31l-2.09-2.18c-12.57-13.11-25.57-26.67-30.51-53.17l-.08-.45c-.05-.33-.13-.72-.21-1.18-1.71-9.56-6.92-38.67,15.51-65.74l.09-.11c10.68-12.68,24.23-21.56,39.2-25.7,17-4.69,35.57-3.47,55.25,3.62a17.77,17.77,0,0,1,11.31,21.26A17.5,17.5,0,0,1,255,87.54C231.5,79,212.63,82.85,198.93,99.07c-12,14.55-9.18,30.42-8,37.2l.27,1.55c3,16.11,9.94,23.3,21.33,35.19,2.76,2.88,5.7,5.94,8.75,9.32,36.81-16.86,73.86-24.84,109.5-31.38a614.13,614.13,0,0,1,103-9.9C400.53,58.37,319.59,0,225,0,100.74,0,0,100.74,0,225S100.74,450,225,450,450,349.26,450,225a225.63,225.63,0,0,0-5.49-49.58A17.39,17.39,0,0,1,440.09,176Z"/><path class="cls-1" d="M211.48,227.15a248.74,248.74,0,0,0-26.6,18.23c-23.48,18.46-37.24,35-42.09,50.58-3.9,12.55-8.25,35.69,6.49,49.65l.35.34c12.45,12.48,36.58,8.41,49.76,2.63,25.09-11,32.47-38.32,33.7-43.68,5.86-25.66-5.8-48.25-15.18-66.41C215.77,234.34,213.62,230.58,211.48,227.15Z"/></g></svg>