<?xml version="1.0" encoding="utf-8"?>
<!-- Generator: Adobe Illustrator 24.2.3, SVG Export Plug-In . SVG Version: 6.00 Build 0)  -->
<svg version="1.1" id="Logo_x5F_v2" xmlns="http://www.w3.org/2000/svg" xmlns:xlink="http://www.w3.org/1999/xlink" x="0px"
	 y="0px" viewBox="0 0 40 40" style="enable-background:new 0 0 40 40;" xml:space="preserve">
<style type="text/css">
	.st0{fill:none;stroke:#FFB179;stroke-width:4;stroke-linecap:round;stroke-miterlimit:10;}
</style>
<path id="S_x2F_F_2_" class="st0" d="M18.4193592,2.6478181c-4.1193743-1.5006303-7.0506582-0.2077432-8.8860798,1.9714165
	c-2.1773844,2.6285553-1.4698696,5.509685-1.3535089,6.2379146c0.8631067,4.6293955,4.0500383,4.8180923,6.9988136,10.5296135
	c1.1758509,2.2775249,2.8182211,5.4781017,1.9637213,9.2187519c-0.1460285,0.6392555-1.1755991,4.8270569-5.1474657,6.5691948
	c-2.1266527,0.932785-5.8911715,1.5128708-8.1413469-0.7407608C1.03952,33.768734,2.1822965,29.634409,2.540041,28.4836426
	c0.7631445-2.4548378,2.7817979-4.7077866,5.6477461-6.9603348c6.3809652-5.0152435,14.8431864-6.8230896,16.9655876-7.3147192
	C28.4110432,13.4539881,32.7372932,12.9462442,38,12.9344845"/>
</svg>
